<?xml version="1.0" standalone="no"?>
<!DOCTYPE svg PUBLIC "-//W3C//DTD SVG 20010904//EN"
 "http://www.w3.org/TR/2001/REC-SVG-20010904/DTD/svg10.dtd">
<svg version="1.0" xmlns="http://www.w3.org/2000/svg"
 width="300.000000pt" height="300.000000pt" viewBox="0 0 300.000000 300.000000"
 preserveAspectRatio="xMidYMid meet">
<metadata>
Created by potrace 1.14, written by Peter Selinger 2001-2017
</metadata>
<g transform="translate(0.000000,300.000000) scale(0.100000,-0.100000)"
fill="#000000" stroke="none">
<path d="M1435 2713 c-155 -34 -289 -124 -377 -251 -30 -43 -66 -118 -73 -150
-2 -9 -7 -35 -12 -57 -5 -22 -8 -62 -7 -90 6 -128 15 -246 19 -257 2 -7 7 -26
9 -43 3 -16 13 -62 22 -101 18 -76 15 -101 -13 -111 -156 -53 -291 -160 -389
-305 -40 -60 -110 -198 -120 -238 -2 -8 -13 -46 -24 -85 -11 -38 -22 -81 -25
-94 -2 -14 -9 -47 -14 -75 -18 -93 -21 -130 -26 -301 -5 -190 4 -231 53 -256
31 -15 455 -23 431 -8 -10 6 -2 9 24 9 34 0 37 2 37 29 0 16 6 31 12 33 9 3 8
9 -5 22 -9 10 -18 32 -18 49 -1 18 -3 46 -4 62 -12 113 -23 218 -30 305 -4 36
-8 83 -11 105 -12 107 -11 145 2 156 17 14 1222 15 1237 0 13 -13 11 -83 -8
-236 -2 -17 -6 -61 -9 -100 -4 -38 -8 -86 -11 -105 -2 -19 -6 -71 -10 -115 -6
-85 -21 -135 -38 -135 -6 0 -3 -6 8 -14 12 -8 16 -20 12 -35 -4 -18 -1 -21 30
-21 19 0 32 -4 29 -9 -10 -15 384 -7 416 9 50 24 60 64 57 233 -11 584 -208
963 -578 1115 -30 12 -58 27 -62 33 -3 6 0 32 8 58 15 49 48 199 59 266 8 57
9 223 1 268 -28 152 -163 319 -318 393 -88 43 -212 63 -284 47z m186 -728 c81
-9 160 -38 182 -68 69 -91 -34 -314 -179 -387 -69 -34 -169 -34 -239 2 -63 33
-123 97 -159 171 -23 47 -28 70 -28 128 0 88 17 109 103 134 105 29 191 35
320 20z"/>
<path d="M1473 790 c-55 -22 -59 -108 -7 -149 50 -40 109 -16 123 49 17 76
-44 129 -116 100z"/>
</g>
</svg>
